{
	"asset":{
		"version":"2.0",
		"generator":"Created using the official Cinema 4D glTF Exporter 1.000x290161"
	},
	"scenes":[{
		"nodes":[0]
	}],
	"nodes":[{
		"name":"Esfera",
		"translation":[0,
		0,
		0],
		"rotation":[0,
		-0.485,
		0,
		0.875],
		"scale":[1,
		1,
		1],
		"mesh":0
	}],
	"meshes":[{
		"primitives":[{
			"attributes":{
				"POSITION":1,
				"TEXCOORD_0":2
			},
			"indices":0,
			"material":0
		}]
	}],
	"accessors":[{
		"bufferView":0,
		"type":"SCALAR",
		"componentType":5123,
		"count":3084,
		"byteOffset":0,
		"min":[0],
		"max":[614]
	},
	{
		"bufferView":1,
		"type":"VEC3",
		"componentType":5126,
		"count":615,
		"byteOffset":0,
		"min":[-0.947,
		-0.859,
		-0.888],
		"max":[0.834,
		0.822,
		0.889]
	},
	{
		"bufferView":1,
		"type":"VEC2",
		"componentType":5126,
		"count":615,
		"byteOffset":12,
		"min":[0.021,
		0.01],
		"max":[0.987,
		0.986]
	},
	{
		"bufferView":2,
		"type":"SCALAR",
		"componentType":5126,
		"count":4,
		"byteOffset":0,
		"min":[0],
		"max":[3.7]
	},
	{
		"bufferView":2,
		"type":"VEC3",
		"componentType":5126,
		"count":12,
		"byteOffset":16,
		"min":[0,
		-0.062,
		0],
		"max":[5.641,
		2.641,
		9.46]
	},
	{
		"bufferView":3,
		"type":"SCALAR",
		"componentType":5126,
		"count":4,
		"byteOffset":0,
		"min":[0],
		"max":[3.7]
	},
	{
		"bufferView":3,
		"type":"VEC4",
		"componentType":5126,
		"count":4,
		"byteOffset":16,
		"min":[-0.022,
		-0.488,
		-0.046,
		-0.872],
		"max":[0.057,
		0.485,
		0,
		0.875]
	},
	{
		"bufferView":4,
		"type":"SCALAR",
		"componentType":5126,
		"count":4,
		"byteOffset":0,
		"min":[0],
		"max":[3.7]
	},
	{
		"bufferView":4,
		"type":"VEC3",
		"componentType":5126,
		"count":4,
		"byteOffset":16,
		"min":[1,
		1,
		1],
		"max":[1,
		1,
		1]
	}],
	"bufferViews":[{
		"buffer":0,
		"byteOffset":0,
		"byteLength":6168,
		"target":34963
	},
	{
		"buffer":0,
		"byteOffset":6168,
		"byteLength":12300,
		"target":34962,
		"byteStride":20
	},
	{
		"buffer":1,
		"byteOffset":0,
		"byteLength":160
	},
	{
		"buffer":1,
		"byteOffset":160,
		"byteLength":80
	},
	{
		"buffer":1,
		"byteOffset":240,
		"byteLength":64
	}],
	"buffers":[{
		"uri":"data:application/octet-stream;base64,",
		"byteLength":18468
	},
	{
		"uri":"data:application/octet-stream;base64,",
		"byteLength":304
	}],
	"images":[{
		"uri":"data:image/jpeg;base64,"
	},
	{
		"uri":"data:image/jpeg;base64,"
	},
	{
		"uri":"data:image/jpeg;base64,"
	}],
	"samplers":[{
		"magFilter":9729,
		"minFilter":9729,
		"wrapS":10497,
		"wrapT":10497
	},
	{
		"magFilter":9729,
		"minFilter":9729,
		"wrapS":10497,
		"wrapT":10497
	},
	{
		"magFilter":9729,
		"minFilter":9729,
		"wrapS":10497,
		"wrapT":10497
	}],
	"textures":[{
		"sampler":0,
		"source":0
	},
	{
		"sampler":1,
		"source":1
	},
	{
		"sampler":2,
		"source":2
	}],
	"materials":[{
		"pbrMetallicRoughness":{
			"baseColorTexture":{
				"index":0
			},
			"baseColorFactor":[1,
			1,
			1,
			1],
			"metallicFactor":0,
			"roughnessFactor":0.5
		},
		"normalTexture":{
			"index":1,
			"scale":1
		},
		"occlusionTexture":{
			"index":2,
			"strength":1
		},
		"emissiveFactor":[0,
		0,
		0],
		"alphaMode":"OPAQUE",
		"doubleSided":true,
		"name":"Mat"
	}],
	"animations":[{
		"samplers":[{
			"input":3,
			"interpolation":"CUBICSPLINE",
			"output":4
		},
		{
			"input":5,
			"interpolation":"LINEAR",
			"output":6
		},
		{
			"input":7,
			"interpolation":"LINEAR",
			"output":8
		}],
		"channels":[{
			"sampler":0,
			"target":{
				"node":0,
				"path":"translation"
			}
		},
		{
			"sampler":1,
			"target":{
				"node":0,
				"path":"rotation"
			}
		},
		{
			"sampler":2,
			"target":{
				"node":0,
				"path":"scale"
			}
		}]
	}]
}