{
	"asset":{
		"version":"2.0",
		"generator":"Created using the official Cinema 4D glTF Exporter 1.000x290161"
	},
	"scenes":[{
		"nodes":[0]
	}],
	"nodes":[{
		"name":"Cubo.36",
		"mesh":0
	}],
	"meshes":[{
		"primitives":[{
			"attributes":{
				"POSITION":1,
				"TEXCOORD_0":2
			},
			"indices":0,
			"material":0
		}]
	}],
	"accessors":[{
		"bufferView":0,
		"type":"SCALAR",
		"componentType":5123,
		"count":324,
		"byteOffset":0,
		"min":[0],
		"max":[79]
	},
	{
		"bufferView":1,
		"type":"VEC3",
		"componentType":5126,
		"count":80,
		"byteOffset":0,
		"min":[-2,
		-2,
		0],
		"max":[0,
		0,
		2]
	},
	{
		"bufferView":1,
		"type":"VEC2",
		"componentType":5126,
		"count":80,
		"byteOffset":12,
		"min":[0,
		0],
		"max":[1,
		1]
	}],
	"bufferViews":[{
		"buffer":0,
		"byteOffset":0,
		"byteLength":648,
		"target":34963
	},
	{
		"buffer":0,
		"byteOffset":648,
		"byteLength":1600,
		"target":34962,
		"byteStride":20
	}],
	"buffers":[{
		"uri":"data:application/octet-stream;base64,",
		"byteLength":2248
	}],
	"materials":[{
		"pbrMetallicRoughness":{
			"baseColorFactor":[0.05,
			0.05,
			0.05,
			1],
			"metallicFactor":0,
			"roughnessFactor":0.5
		},
		"emissiveFactor":[0,
		0,
		0],
		"alphaMode":"OPAQUE",
		"doubleSided":true,
		"name":"Mat.9"
	}]
}