{
	"asset":{
		"version":"2.0",
		"generator":"Created using the official Cinema 4D glTF Exporter 1.000x290161"
	},
	"scenes":[{
		"nodes":[0]
	}],
	"nodes":[{
		"name":"pared interior esquina alta n2",
		"translation":[0,
		0,
		0],
		"rotation":[0,
		-0.707,
		0,
		-0.707],
		"scale":[1,
		1,
		1],
		"mesh":0
	}],
	"meshes":[{
		"primitives":[{
			"attributes":{
				"POSITION":1,
				"TEXCOORD_0":2
			},
			"indices":0,
			"material":0
		}]
	}],
	"accessors":[{
		"bufferView":0,
		"type":"SCALAR",
		"componentType":5123,
		"byteOffset":0,
		"count":204,
		"min":[0],
		"max":[66]
	},
	{
		"bufferView":1,
		"type":"VEC3",
		"componentType":5126,
		"byteOffset":0,
		"count":67,
		"min":[-1,
		-1,
		-1],
		"max":[1,
		1,
		1]
	},
	{
		"bufferView":1,
		"type":"VEC2",
		"componentType":5126,
		"byteOffset":12,
		"count":67,
		"min":[0,
		0],
		"max":[1,
		1]
	}],
	"bufferViews":[{
		"buffer":0,
		"byteOffset":0,
		"byteLength":408,
		"target":34963
	},
	{
		"buffer":0,
		"byteOffset":408,
		"byteLength":1340,
		"target":34962,
		"byteStride":20
	}],
	"buffers":[{
		"uri":"data:application/octet-stream;base64,",
		"byteLength":1748
	}],
	"materials":[{
		"pbrMetallicRoughness":{
			"baseColorFactor":[0.216,
			0.54,
			0.508,
			1],
			"metallicFactor":0,
			"roughnessFactor":0.26
		},
		"emissiveFactor":[0,
		0,
		0],
		"alphaMode":"OPAQUE",
		"doubleSided":true,
		"name":"el que va"
	}]
}