{
	"asset":{
		"version":"2.0",
		"generator":"Created using the official Cinema 4D glTF Exporter 1.000x290161"
	},
	"scenes":[{
		"nodes":[0]
	}],
	"nodes":[{
		"name":"Objeto Poligonal.5",
		"mesh":0
	}],
	"meshes":[{
		"primitives":[{
			"attributes":{
				"POSITION":1,
				"TEXCOORD_0":2
			},
			"indices":0,
			"material":0
		}]
	}],
	"accessors":[{
		"bufferView":0,
		"type":"SCALAR",
		"componentType":5123,
		"count":2364,
		"byteOffset":0,
		"min":[0],
		"max":[586]
	},
	{
		"bufferView":1,
		"type":"VEC3",
		"componentType":5126,
		"count":587,
		"byteOffset":0,
		"min":[-0.333,
		-1,
		-0.333],
		"max":[0.333,
		1,
		0.333]
	},
	{
		"bufferView":1,
		"type":"VEC2",
		"componentType":5126,
		"count":587,
		"byteOffset":12,
		"min":[0.06,
		0.026],
		"max":[0.941,
		0.972]
	}],
	"bufferViews":[{
		"buffer":0,
		"byteOffset":0,
		"byteLength":4728,
		"target":34963
	},
	{
		"buffer":0,
		"byteOffset":4728,
		"byteLength":11740,
		"target":34962,
		"byteStride":20
	}],
	"buffers":[{
		"uri":"data:application/octet-stream;base64,",
		"byteLength":16468
	}],
	"images":[{
		"uri":"data:image/jpeg;base64,"
	}],
	"samplers":[{
		"magFilter":9729,
		"minFilter":9729,
		"wrapS":10497,
		"wrapT":10497
	}],
	"textures":[{
		"sampler":0,
		"source":0
	}],
	"materials":[{
		"pbrMetallicRoughness":{
			"baseColorTexture":{
				"index":0
			},
			"baseColorFactor":[1,
			1,
			1,
			1],
			"metallicFactor":0,
			"roughnessFactor":0.5
		},
		"emissiveFactor":[0,
		0,
		0],
		"alphaMode":"OPAQUE",
		"doubleSided":true,
		"name":"Mat"
	}]
}