{
	"asset":{
		"version":"2.0",
		"generator":"Created using the official Cinema 4D glTF Exporter 1.000x290161"
	},
	"scenes":[{
		"nodes":[0]
	}],
	"nodes":[{
		"name":"Objeto Poligonal.1",
		"translation":[0,
		0,
		0],
		"rotation":[0,
		0,
		0,
		-1],
		"scale":[1,
		1,
		1],
		"mesh":0
	}],
	"meshes":[{
		"primitives":[{
			"attributes":{
				"POSITION":1
			},
			"indices":0,
			"material":0
		}]
	}],
	"accessors":[{
		"bufferView":0,
		"type":"SCALAR",
		"componentType":5123,
		"count":708,
		"byteOffset":0,
		"min":[0],
		"max":[119]
	},
	{
		"bufferView":1,
		"type":"VEC3",
		"componentType":5126,
		"count":120,
		"byteOffset":0,
		"min":[-1,
		-1,
		-1],
		"max":[1,
		1,
		1]
	}],
	"bufferViews":[{
		"buffer":0,
		"byteOffset":0,
		"byteLength":1416,
		"target":34963
	},
	{
		"buffer":0,
		"byteOffset":1416,
		"byteLength":1440,
		"target":34962
	}],
	"buffers":[{
		"uri":"data:application/octet-stream;base64,",
		"byteLength":2856
	}],
	"materials":[{
		"pbrMetallicRoughness":{
			"baseColorFactor":[0.05,
			0.05,
			0.05,
			1],
			"metallicFactor":0,
			"roughnessFactor":0.5
		},
		"emissiveFactor":[0,
		0,
		0],
		"alphaMode":"OPAQUE",
		"doubleSided":true,
		"name":"Mat.9"
	}]
}