{
	"asset":{
		"version":"2.0",
		"generator":"Created using the official Cinema 4D glTF Exporter 1.000x290161"
	},
	"scenes":[{
		"nodes":[0]
	}],
	"nodes":[{
		"name":"Cubo.137",
		"translation":[0,
		0,
		0],
		"rotation":[0,
		0,
		0,
		1],
		"scale":[1,
		1,
		1],
		"children":[1]
	},
	{
		"name":"Cubo.137",
		"translation":[0,
		0,
		0],
		"rotation":[0,
		0,
		0,
		1],
		"scale":[1,
		1,
		1],
		"mesh":0
	}],
	"meshes":[{
		"primitives":[{
			"attributes":{
				"POSITION":3,
				"TEXCOORD_0":4
			},
			"indices":2,
			"material":0
		}]
	}],
	"accessors":[{
		"bufferView":0,
		"type":"SCALAR",
		"componentType":5126,
		"count":661,
		"byteOffset":0,
		"min":[0],
		"max":[3.667]
	},
	{
		"bufferView":0,
		"type":"VEC3",
		"componentType":5126,
		"count":661,
		"byteOffset":2644,
		"min":[1,
		1,
		1],
		"max":[1,
		1,
		1]
	},
	{
		"bufferView":1,
		"type":"SCALAR",
		"componentType":5123,
		"count":144,
		"byteOffset":0,
		"min":[0],
		"max":[47]
	},
	{
		"bufferView":2,
		"type":"VEC3",
		"componentType":5126,
		"count":48,
		"byteOffset":0,
		"min":[-0.317,
		-0.59,
		-0.317],
		"max":[0.317,
		0.59,
		0.317]
	},
	{
		"bufferView":2,
		"type":"VEC2",
		"componentType":5126,
		"count":48,
		"byteOffset":12,
		"min":[0,
		0],
		"max":[1,
		1]
	},
	{
		"bufferView":3,
		"type":"SCALAR",
		"componentType":5126,
		"count":661,
		"byteOffset":0,
		"min":[0],
		"max":[3.667]
	},
	{
		"bufferView":3,
		"type":"VEC4",
		"componentType":5126,
		"count":661,
		"byteOffset":2644,
		"min":[0,
		-1,
		0,
		-1],
		"max":[0,
		0,
		0,
		1]
	},
	{
		"bufferView":4,
		"type":"SCALAR",
		"componentType":5126,
		"count":661,
		"byteOffset":0,
		"min":[0],
		"max":[3.667]
	},
	{
		"bufferView":4,
		"type":"VEC3",
		"componentType":5126,
		"count":661,
		"byteOffset":2644,
		"min":[1,
		1,
		1],
		"max":[1,
		1,
		1]
	}],
	"bufferViews":[{
		"buffer":0,
		"byteOffset":0,
		"byteLength":10576
	},
	{
		"buffer":1,
		"byteOffset":0,
		"byteLength":288,
		"target":34963
	},
	{
		"buffer":1,
		"byteOffset":288,
		"byteLength":960,
		"target":34962,
		"byteStride":20
	},
	{
		"buffer":2,
		"byteOffset":0,
		"byteLength":13220
	},
	{
		"buffer":2,
		"byteOffset":13220,
		"byteLength":10576
	}],
	"buffers":[{
		"uri":"data:application/octet-stream;base64,",
		"byteLength":10576
	},
	{
		"uri":"data:application/octet-stream;base64,",
		"byteLength":1248
	},
	{
		"uri":"data:application/octet-stream;base64,",
		"byteLength":23796
	}],
	"materials":[{
		"pbrMetallicRoughness":{
			"baseColorFactor":[1,
			1,
			1,
			1],
			"metallicFactor":0,
			"roughnessFactor":0.5
		},
		"emissiveFactor":[0,
		0,
		0],
		"alphaMode":"OPAQUE",
		"doubleSided":true,
		"name":"Mat.7"
	}],
	"animations":[{
		"samplers":[{
			"input":0,
			"interpolation":"LINEAR",
			"output":1
		},
		{
			"input":5,
			"interpolation":"LINEAR",
			"output":6
		},
		{
			"input":7,
			"interpolation":"LINEAR",
			"output":8
		}],
		"channels":[{
			"sampler":0,
			"target":{
				"node":0,
				"path":"scale"
			}
		},
		{
			"sampler":1,
			"target":{
				"node":1,
				"path":"rotation"
			}
		},
		{
			"sampler":2,
			"target":{
				"node":1,
				"path":"scale"
			}
		}]
	}]
}