{
	"asset":{
		"version":"2.0",
		"generator":"Created using the official Cinema 4D glTF Exporter 1.000x290161"
	},
	"scenes":[{
		"nodes":[0]
	}],
	"nodes":[{
		"name":"Redes sociales",
		"translation":[0,
		0,
		0],
		"rotation":[0,
		0,
		0,
		-1],
		"scale":[1,
		1,
		1],
		"mesh":0
	}],
	"meshes":[{
		"primitives":[{
			"attributes":{
				"POSITION":1,
				"TEXCOORD_0":2
			},
			"indices":0,
			"material":0
		}]
	}],
	"accessors":[{
		"bufferView":0,
		"type":"SCALAR",
		"componentType":5123,
		"count":6624,
		"byteOffset":0,
		"min":[0],
		"max":[1220]
	},
	{
		"bufferView":1,
		"type":"VEC3",
		"componentType":5126,
		"count":1221,
		"byteOffset":0,
		"min":[-0.295,
		-0.299,
		-0.295],
		"max":[0.295,
		0.299,
		0.295]
	},
	{
		"bufferView":1,
		"type":"VEC2",
		"componentType":5126,
		"count":1221,
		"byteOffset":12,
		"min":[0,
		0],
		"max":[1,
		1]
	},
	{
		"bufferView":2,
		"type":"SCALAR",
		"componentType":5126,
		"count":541,
		"byteOffset":0,
		"min":[0],
		"max":[3]
	},
	{
		"bufferView":2,
		"type":"VEC3",
		"componentType":5126,
		"count":541,
		"byteOffset":2164,
		"min":[3.597,
		2.256,
		10.492],
		"max":[3.597,
		2.756,
		10.492]
	},
	{
		"bufferView":3,
		"type":"SCALAR",
		"componentType":5126,
		"count":541,
		"byteOffset":0,
		"min":[0],
		"max":[3]
	},
	{
		"bufferView":3,
		"type":"VEC3",
		"componentType":5126,
		"count":541,
		"byteOffset":2164,
		"min":[1,
		1,
		1],
		"max":[1,
		1,
		1]
	}],
	"bufferViews":[{
		"buffer":0,
		"byteOffset":0,
		"byteLength":13248,
		"target":34963
	},
	{
		"buffer":0,
		"byteOffset":13248,
		"byteLength":24420,
		"target":34962,
		"byteStride":20
	},
	{
		"buffer":1,
		"byteOffset":0,
		"byteLength":8656
	},
	{
		"buffer":1,
		"byteOffset":8656,
		"byteLength":8656
	}],
	"buffers":[{
		"uri":"data:application/octet-stream;base64,",
		"byteLength":37668
	},
	{
		"uri":"data:application/octet-stream;base64,",
		"byteLength":17312
	}],
	"images":[{
		"uri":"data:image/jpeg;base64,"
	}],
	"samplers":[{
		"magFilter":9729,
		"minFilter":9729,
		"wrapS":10497,
		"wrapT":10497
	}],
	"textures":[{
		"sampler":0,
		"source":0
	}],
	"materials":[{
		"pbrMetallicRoughness":{
			"baseColorTexture":{
				"index":0
			},
			"baseColorFactor":[1,
			1,
			1,
			1],
			"metallicFactor":1,
			"roughnessFactor":1
		},
		"emissiveFactor":[0,
		0,
		0],
		"alphaMode":"OPAQUE",
		"doubleSided":true,
		"name":"Mat"
	}],
	"animations":[{
		"samplers":[{
			"input":3,
			"interpolation":"LINEAR",
			"output":4
		},
		{
			"input":5,
			"interpolation":"LINEAR",
			"output":6
		}],
		"channels":[{
			"sampler":0,
			"target":{
				"node":0,
				"path":"translation"
			}
		},
		{
			"sampler":1,
			"target":{
				"node":0,
				"path":"scale"
			}
		}]
	}]
}