{
	"asset":{
		"version":"2.0",
		"generator":"Created using the official Cinema 4D glTF Exporter 1.000x290161"
	},
	"scenes":[{
		"nodes":[0]
	}],
	"nodes":[{
		"name":"Cubo.140",
		"translation":[0,
		0,
		0],
		"rotation":[0,
		-0.236,
		0,
		-0.972],
		"scale":[1,
		1,
		1],
		"mesh":0
	}],
	"meshes":[{
		"primitives":[{
			"attributes":{
				"POSITION":1,
				"TEXCOORD_0":2
			},
			"indices":0,
			"material":0
		}]
	}],
	"accessors":[{
		"bufferView":0,
		"type":"SCALAR",
		"componentType":5123,
		"count":2046,
		"byteOffset":0,
		"min":[0],
		"max":[397]
	},
	{
		"bufferView":1,
		"type":"VEC3",
		"componentType":5126,
		"count":398,
		"byteOffset":0,
		"min":[-0.676,
		-1.241,
		-0.159],
		"max":[0.773,
		0.821,
		0.155]
	},
	{
		"bufferView":1,
		"type":"VEC2",
		"componentType":5126,
		"count":398,
		"byteOffset":12,
		"min":[0.047,
		0.172],
		"max":[0.94,
		0.764]
	},
	{
		"bufferView":2,
		"type":"SCALAR",
		"componentType":5126,
		"count":3,
		"byteOffset":0,
		"min":[0],
		"max":[3.667]
	},
	{
		"bufferView":2,
		"type":"VEC3",
		"componentType":5126,
		"count":3,
		"byteOffset":12,
		"min":[3.283,
		2.416,
		7.989],
		"max":[3.283,
		2.416,
		7.989]
	},
	{
		"bufferView":3,
		"type":"SCALAR",
		"componentType":5126,
		"count":3,
		"byteOffset":0,
		"min":[0],
		"max":[3.667]
	},
	{
		"bufferView":3,
		"type":"VEC4",
		"componentType":5126,
		"count":3,
		"byteOffset":12,
		"min":[0,
		-0.259,
		0,
		-0.966],
		"max":[0,
		-0.259,
		0,
		0.966]
	},
	{
		"bufferView":4,
		"type":"SCALAR",
		"componentType":5126,
		"count":3,
		"byteOffset":0,
		"min":[0],
		"max":[3.667]
	},
	{
		"bufferView":4,
		"type":"VEC3",
		"componentType":5126,
		"count":3,
		"byteOffset":12,
		"min":[1,
		1,
		1],
		"max":[1,
		1,
		1]
	}],
	"bufferViews":[{
		"buffer":0,
		"byteOffset":0,
		"byteLength":4092,
		"target":34963
	},
	{
		"buffer":0,
		"byteOffset":4092,
		"byteLength":7960,
		"target":34962,
		"byteStride":20
	},
	{
		"buffer":1,
		"byteOffset":0,
		"byteLength":48
	},
	{
		"buffer":1,
		"byteOffset":48,
		"byteLength":60
	},
	{
		"buffer":1,
		"byteOffset":108,
		"byteLength":48
	}],
	"buffers":[{
		"uri":"data:application/octet-stream;base64,",
		"byteLength":12052
	},
	{
		"uri":"data:application/octet-stream;base64,",
		"byteLength":156
	}],
	"images":[{
		"uri":"data:image/jpeg;base64,"
	},
	{
		"uri":"data:image/jpeg;base64,"
	}],
	"samplers":[{
		"magFilter":9729,
		"minFilter":9729,
		"wrapS":10497,
		"wrapT":10497
	},
	{
		"magFilter":9729,
		"minFilter":9729,
		"wrapS":10497,
		"wrapT":10497
	}],
	"textures":[{
		"sampler":0,
		"source":0
	},
	{
		"sampler":1,
		"source":1
	}],
	"materials":[{
		"pbrMetallicRoughness":{
			"baseColorTexture":{
				"index":0
			},
			"baseColorFactor":[1,
			1,
			1,
			1],
			"metallicFactor":0,
			"roughnessFactor":0.5
		},
		"emissiveTexture":{
			"index":1
		},
		"emissiveFactor":[0.067,
		0.067,
		0.067],
		"alphaMode":"OPAQUE",
		"doubleSided":true,
		"name":"Mat"
	}],
	"animations":[{
		"samplers":[{
			"input":3,
			"interpolation":"LINEAR",
			"output":4
		},
		{
			"input":5,
			"interpolation":"LINEAR",
			"output":6
		},
		{
			"input":7,
			"interpolation":"LINEAR",
			"output":8
		}],
		"channels":[{
			"sampler":0,
			"target":{
				"node":0,
				"path":"translation"
			}
		},
		{
			"sampler":1,
			"target":{
				"node":0,
				"path":"rotation"
			}
		},
		{
			"sampler":2,
			"target":{
				"node":0,
				"path":"scale"
			}
		}]
	}]
}