{
	"asset":{
		"version":"2.0",
		"generator":"Created using the official Cinema 4D glTF Exporter 1.000x290161"
	},
	"scenes":[{
		"nodes":[0]
	}],
	"nodes":[{
		"name":"Platónico",
		"translation":[0,
		0,
		0],
		"rotation":[0.985,
		0,
		0,
		-0.174],
		"scale":[1,
		1,
		1],
		"mesh":0
	}],
	"meshes":[{
		"primitives":[{
			"attributes":{
				"POSITION":1,
				"TEXCOORD_0":2
			},
			"indices":0,
			"material":0
		}]
	}],
	"accessors":[{
		"bufferView":0,
		"type":"SCALAR",
		"componentType":5123,
		"count":780,
		"byteOffset":0,
		"min":[0],
		"max":[407]
	},
	{
		"bufferView":1,
		"type":"VEC3",
		"componentType":5126,
		"count":408,
		"byteOffset":0,
		"min":[-0.441,
		-0.441,
		-0.441],
		"max":[0.441,
		0.441,
		0.441]
	},
	{
		"bufferView":1,
		"type":"VEC2",
		"componentType":5126,
		"count":408,
		"byteOffset":12,
		"min":[0.059,
		0.009],
		"max":[0.964,
		0.991]
	},
	{
		"bufferView":2,
		"type":"SCALAR",
		"componentType":5126,
		"count":3775,
		"byteOffset":0,
		"min":[0],
		"max":[3.7]
	},
	{
		"bufferView":2,
		"type":"VEC4",
		"componentType":5126,
		"count":3775,
		"byteOffset":15100,
		"min":[-0.008,
		-0.587,
		-0.008,
		-0.587],
		"max":[0.992,
		0.413,
		0.992,
		0.413]
	},
	{
		"bufferView":3,
		"type":"SCALAR",
		"componentType":5126,
		"count":3702,
		"byteOffset":0,
		"min":[0],
		"max":[3.7]
	},
	{
		"bufferView":3,
		"type":"VEC3",
		"componentType":5126,
		"count":3702,
		"byteOffset":14808,
		"min":[1,
		1,
		1],
		"max":[1,
		1,
		1]
	}],
	"bufferViews":[{
		"buffer":0,
		"byteOffset":0,
		"byteLength":1560,
		"target":34963
	},
	{
		"buffer":0,
		"byteOffset":1560,
		"byteLength":8160,
		"target":34962,
		"byteStride":20
	},
	{
		"buffer":1,
		"byteOffset":0,
		"byteLength":75500
	},
	{
		"buffer":1,
		"byteOffset":75500,
		"byteLength":59232
	}],
	"buffers":[{
		"uri":"data:application/octet-stream;base64,",
		"byteLength":9720
	},
	{
		"uri":"data:application/octet-stream;base64,",
		"byteLength":134732
	}],
	"images":[{
		"uri":"data:image/jpeg;base64,"
	}],
	"samplers":[{
		"magFilter":9729,
		"minFilter":9729,
		"wrapS":10497,
		"wrapT":10497
	}],
	"textures":[{
		"sampler":0,
		"source":0
	}],
	"materials":[{
		"pbrMetallicRoughness":{
			"baseColorTexture":{
				"index":0
			},
			"baseColorFactor":[1,
			1,
			1,
			1],
			"metallicFactor":0,
			"roughnessFactor":0.5
		},
		"emissiveFactor":[0,
		0,
		0],
		"alphaMode":"OPAQUE",
		"doubleSided":true,
		"name":"Mat"
	}],
	"animations":[{
		"samplers":[{
			"input":3,
			"interpolation":"LINEAR",
			"output":4
		},
		{
			"input":5,
			"interpolation":"LINEAR",
			"output":6
		}],
		"channels":[{
			"sampler":0,
			"target":{
				"node":0,
				"path":"rotation"
			}
		},
		{
			"sampler":1,
			"target":{
				"node":0,
				"path":"scale"
			}
		}]
	}]
}