{
	"asset":{
		"version":"2.0",
		"generator":"Created using the official Cinema 4D glTF Exporter 1.000x290161"
	},
	"scenes":[{
		"nodes":[0]
	}],
	"nodes":[{
		"name":"Deep web.1",
		"translation":[0,
		0,
		0],
		"rotation":[0,
		0,
		0,
		-1],
		"scale":[1,
		1,
		1],
		"mesh":0,
		"children":[1,
		2]
	},
	{
		"name":"n2",
		"translation":[0,
		0.8,
		0],
		"rotation":[0,
		0,
		0,
		-1],
		"scale":[1,
		1,
		1],
		"mesh":1
	},
	{
		"name":"n1",
		"translation":[0,
		0.4,
		0],
		"rotation":[0,
		0,
		0,
		-1],
		"scale":[1,
		1,
		1],
		"mesh":2
	}],
	"meshes":[{
		"primitives":[{
			"attributes":{
				"POSITION":1,
				"TEXCOORD_0":2
			},
			"indices":0,
			"material":0
		}]
	},
	{
		"primitives":[{
			"attributes":{
				"POSITION":4,
				"TEXCOORD_0":5
			},
			"indices":3,
			"material":0
		}]
	},
	{
		"primitives":[{
			"attributes":{
				"POSITION":9,
				"TEXCOORD_0":10
			},
			"indices":8,
			"material":0
		}]
	}],
	"accessors":[{
		"bufferView":0,
		"type":"SCALAR",
		"componentType":5123,
		"count":396,
		"byteOffset":0,
		"min":[0],
		"max":[118]
	},
	{
		"bufferView":1,
		"type":"VEC3",
		"componentType":5126,
		"count":119,
		"byteOffset":0,
		"min":[-0.3,
		-0.2,
		-0.3],
		"max":[0.3,
		0.208,
		0.3]
	},
	{
		"bufferView":1,
		"type":"VEC2",
		"componentType":5126,
		"count":119,
		"byteOffset":12,
		"min":[0,
		0],
		"max":[1,
		1]
	},
	{
		"bufferView":2,
		"type":"SCALAR",
		"componentType":5123,
		"count":396,
		"byteOffset":0,
		"min":[0],
		"max":[118]
	},
	{
		"bufferView":3,
		"type":"VEC3",
		"componentType":5126,
		"count":119,
		"byteOffset":0,
		"min":[-0.3,
		-0.208,
		-0.3],
		"max":[0.3,
		0.2,
		0.3]
	},
	{
		"bufferView":3,
		"type":"VEC2",
		"componentType":5126,
		"count":119,
		"byteOffset":12,
		"min":[0,
		0],
		"max":[1,
		1]
	},
	{
		"bufferView":4,
		"type":"SCALAR",
		"componentType":5126,
		"count":3333,
		"byteOffset":0,
		"min":[0],
		"max":[3.267]
	},
	{
		"bufferView":4,
		"type":"VEC4",
		"componentType":5126,
		"count":3333,
		"byteOffset":13332,
		"min":[0,
		-0.423,
		0,
		-1],
		"max":[0,
		0,
		0,
		-0.906]
	},
	{
		"bufferView":5,
		"type":"SCALAR",
		"componentType":5123,
		"count":180,
		"byteOffset":0,
		"min":[0],
		"max":[71]
	},
	{
		"bufferView":6,
		"type":"VEC3",
		"componentType":5126,
		"count":72,
		"byteOffset":0,
		"min":[-0.3,
		-0.192,
		-0.3],
		"max":[0.3,
		0.192,
		0.3]
	},
	{
		"bufferView":6,
		"type":"VEC2",
		"componentType":5126,
		"count":72,
		"byteOffset":12,
		"min":[0,
		0],
		"max":[1,
		1]
	},
	{
		"bufferView":7,
		"type":"SCALAR",
		"componentType":5126,
		"count":3333,
		"byteOffset":0,
		"min":[0],
		"max":[3.267]
	},
	{
		"bufferView":7,
		"type":"VEC4",
		"componentType":5126,
		"count":3333,
		"byteOffset":13332,
		"min":[0,
		-1,
		0,
		-1],
		"max":[0,
		0,
		0,
		1]
	}],
	"bufferViews":[{
		"buffer":0,
		"byteOffset":0,
		"byteLength":792,
		"target":34963
	},
	{
		"buffer":0,
		"byteOffset":792,
		"byteLength":2380,
		"target":34962,
		"byteStride":20
	},
	{
		"buffer":1,
		"byteOffset":0,
		"byteLength":792,
		"target":34963
	},
	{
		"buffer":1,
		"byteOffset":792,
		"byteLength":2380,
		"target":34962,
		"byteStride":20
	},
	{
		"buffer":2,
		"byteOffset":0,
		"byteLength":66660
	},
	{
		"buffer":3,
		"byteOffset":0,
		"byteLength":360,
		"target":34963
	},
	{
		"buffer":3,
		"byteOffset":360,
		"byteLength":1440,
		"target":34962,
		"byteStride":20
	},
	{
		"buffer":4,
		"byteOffset":0,
		"byteLength":66660
	}],
	"buffers":[{
		"uri":"data:application/octet-stream;base64,",
		"byteLength":3172
	},
	{
		"uri":"data:application/octet-stream;base64,",
		"byteLength":3172
	},
	{
		"uri":"data:application/octet-stream;base64,",
		"byteLength":66660
	},
	{
		"uri":"data:application/octet-stream;base64,",
		"byteLength":1800
	},
	{
		"uri":"data:application/octet-stream;base64,",
		"byteLength":66660
	}],
	"materials":[{
		"pbrMetallicRoughness":{
			"baseColorFactor":[0.14,
			0.14,
			0.14,
			1],
			"metallicFactor":0,
			"roughnessFactor":0.3
		},
		"emissiveFactor":[0,
		0,
		0],
		"alphaMode":"OPAQUE",
		"doubleSided":true,
		"name":"Mat.4"
	}],
	"animations":[{
		"samplers":[{
			"input":6,
			"interpolation":"LINEAR",
			"output":7
		},
		{
			"input":11,
			"interpolation":"LINEAR",
			"output":12
		}],
		"channels":[{
			"sampler":0,
			"target":{
				"node":1,
				"path":"rotation"
			}
		},
		{
			"sampler":1,
			"target":{
				"node":2,
				"path":"rotation"
			}
		}]
	}]
}