{
	"asset":{
		"version":"2.0",
		"generator":"Created using the official Cinema 4D glTF Exporter 1.000x290161"
	},
	"scenes":[{
		"nodes":[0]
	}],
	"nodes":[{
		"name":"Cubo.143",
		"translation":[0,
		0,
		0],
		"rotation":[0,
		0,
		0,
		-1],
		"scale":[1,
		1,
		1],
		"mesh":0
	}],
	"meshes":[{
		"primitives":[{
			"attributes":{
				"POSITION":1,
				"TEXCOORD_0":2
			},
			"indices":0,
			"material":0
		}]
	}],
	"accessors":[{
		"bufferView":0,
		"type":"SCALAR",
		"componentType":5123,
		"count":1116,
		"byteOffset":0,
		"min":[0],
		"max":[255]
	},
	{
		"bufferView":1,
		"type":"VEC3",
		"componentType":5126,
		"count":256,
		"byteOffset":0,
		"min":[-0.392,
		-0.636,
		-0.373],
		"max":[0.392,
		0.625,
		0.373]
	},
	{
		"bufferView":1,
		"type":"VEC2",
		"componentType":5126,
		"count":256,
		"byteOffset":12,
		"min":[0,
		0],
		"max":[1,
		1]
	},
	{
		"bufferView":2,
		"type":"SCALAR",
		"componentType":5126,
		"count":5,
		"byteOffset":0,
		"min":[0],
		"max":[3.7]
	},
	{
		"bufferView":2,
		"type":"VEC3",
		"componentType":5126,
		"count":5,
		"byteOffset":20,
		"min":[3.894,
		1.726,
		12.103],
		"max":[3.894,
		1.909,
		12.103]
	},
	{
		"bufferView":3,
		"type":"SCALAR",
		"componentType":5126,
		"count":5,
		"byteOffset":0,
		"min":[0],
		"max":[3.7]
	},
	{
		"bufferView":3,
		"type":"VEC4",
		"componentType":5126,
		"count":5,
		"byteOffset":20,
		"min":[0,
		0,
		0,
		-1],
		"max":[0,
		0,
		0,
		-1]
	},
	{
		"bufferView":4,
		"type":"SCALAR",
		"componentType":5126,
		"count":5,
		"byteOffset":0,
		"min":[0],
		"max":[3.7]
	},
	{
		"bufferView":4,
		"type":"VEC3",
		"componentType":5126,
		"count":5,
		"byteOffset":20,
		"min":[1,
		1,
		1],
		"max":[1,
		1,
		1]
	}],
	"bufferViews":[{
		"buffer":0,
		"byteOffset":0,
		"byteLength":2232,
		"target":34963
	},
	{
		"buffer":0,
		"byteOffset":2232,
		"byteLength":5120,
		"target":34962,
		"byteStride":20
	},
	{
		"buffer":1,
		"byteOffset":0,
		"byteLength":80
	},
	{
		"buffer":1,
		"byteOffset":80,
		"byteLength":100
	},
	{
		"buffer":1,
		"byteOffset":180,
		"byteLength":80
	}],
	"buffers":[{
		"uri":"data:application/octet-stream;base64,",
		"byteLength":7352
	},
	{
		"uri":"data:application/octet-stream;base64,",
		"byteLength":260
	}],
	"materials":[{
		"pbrMetallicRoughness":{
			"baseColorFactor":[0.216,
			0.54,
			0.508,
			1],
			"metallicFactor":0,
			"roughnessFactor":0.26
		},
		"emissiveFactor":[0,
		0,
		0],
		"alphaMode":"OPAQUE",
		"doubleSided":true,
		"name":"el que va"
	}],
	"animations":[{
		"samplers":[{
			"input":3,
			"interpolation":"LINEAR",
			"output":4
		},
		{
			"input":5,
			"interpolation":"LINEAR",
			"output":6
		},
		{
			"input":7,
			"interpolation":"LINEAR",
			"output":8
		}],
		"channels":[{
			"sampler":0,
			"target":{
				"node":0,
				"path":"translation"
			}
		},
		{
			"sampler":1,
			"target":{
				"node":0,
				"path":"rotation"
			}
		},
		{
			"sampler":2,
			"target":{
				"node":0,
				"path":"scale"
			}
		}]
	}]
}