{
	"asset":{
		"version":"2.0",
		"generator":"Created using the official Cinema 4D glTF Exporter 1.000x290161"
	},
	"scenes":[{
		"nodes":[0]
	}],
	"nodes":[{
		"name":"Pared",
		"translation":[0,
		0,
		0],
		"rotation":[0,
		0,
		0,
		-1],
		"scale":[1,
		1.25,
		1],
		"mesh":0
	}],
	"meshes":[{
		"primitives":[{
			"attributes":{
				"POSITION":1,
				"TEXCOORD_0":2
			},
			"indices":0,
			"material":0
		}]
	}],
	"accessors":[{
		"bufferView":0,
		"type":"SCALAR",
		"componentType":5123,
		"count":318,
		"byteOffset":0,
		"min":[0],
		"max":[125]
	},
	{
		"bufferView":1,
		"type":"VEC3",
		"componentType":5126,
		"count":126,
		"byteOffset":0,
		"min":[-1,
		-0.8,
		-1],
		"max":[1,
		0.8,
		1]
	},
	{
		"bufferView":1,
		"type":"VEC2",
		"componentType":5126,
		"count":126,
		"byteOffset":12,
		"min":[0,
		0],
		"max":[1,
		1]
	}],
	"bufferViews":[{
		"buffer":0,
		"byteOffset":0,
		"byteLength":636,
		"target":34963
	},
	{
		"buffer":0,
		"byteOffset":636,
		"byteLength":2520,
		"target":34962,
		"byteStride":20
	}],
	"buffers":[{
		"uri":"data:application/octet-stream;base64,",
		"byteLength":3156
	}],
	"materials":[{
		"pbrMetallicRoughness":{
			"baseColorFactor":[0.47,
			0.63,
			0.87,
			1],
			"metallicFactor":0,
			"roughnessFactor":0.2
		},
		"emissiveFactor":[0,
		0,
		0],
		"alphaMode":"OPAQUE",
		"doubleSided":true,
		"name":"Mat.2"
	}]
}